<svg id="レイヤー_1" data-name="レイヤー 1" xmlns="http://www.w3.org/2000/svg" viewBox="0 0 12.77 10.12"><defs><style>.cls-1{fill:#2a2b2b;}</style></defs><path class="cls-1" d="M14.32,3a.07.07,0,0,0-.14,0,2.66,2.66,0,0,1-2,1.2c-1,.12-4.64.13-5.77.71a3.74,3.74,0,0,0-2.3,3.46A7.33,7.33,0,0,1,4,9.79a3.68,3.68,0,0,1-.83,1.29c-.41.42-1,1.13-1.47,1.26a.06.06,0,0,0,0,.1c.11.16.26.36.41.59a.07.07,0,0,0,.13,0A4.48,4.48,0,0,1,3.78,11.2c.84-.64,1.43-.16,2.2-.06a10.38,10.38,0,0,0,3.65-.21A6.26,6.26,0,0,0,14,7.82C14.47,6.78,14.42,4.92,14.32,3Zm-.7,1.78a4.48,4.48,0,0,1-3,1.9,16.64,16.64,0,0,0-3,.87A4.73,4.73,0,0,0,5.58,9a.11.11,0,0,1-.15,0h0a.1.1,0,0,1,0-.15A4.91,4.91,0,0,1,7.54,7.36a16.72,16.72,0,0,1,3-.88,4.29,4.29,0,0,0,2.89-1.8.11.11,0,0,1,.14,0A.11.11,0,0,1,13.62,4.78Z" transform="translate(-1.61 -2.94)"/></svg>